# Apple ModelIO OBJ File: cigarette
mtllib cigarette.mtl
g 
v 0.0475 0.0042 0.0043
v 0.0475 0.0051 0.0042
v 0.0125 0.0051 0.0042
v 0.0125 0.0042 0.0042
v 0.0475 0.006 0.0039
v 0.0125 0.006 0.0039
v 0.0475 0.0067 0.0034
v 0.0125 0.0067 0.0034
v 0.0475 0.0074 0.0028
v 0.0125 0.0074 0.0028
v 0.0475 0.0079 0.0021
v 0.0125 0.0079 0.0021
v 0.0475 0.0083 0.0013
v 0.0125 0.0083 0.0013
v 0.0475 0.0085 0.0004
v 0.0125 0.0085 0.0004
v 0.0475 0.0085 -0.0004
v 0.0125 0.0085 -0.0004
v 0.0475 0.0083 -0.0013
v 0.0125 0.0083 -0.0013
v 0.0475 0.0079 -0.0021
v 0.0125 0.0079 -0.0021
v 0.0475 0.0074 -0.0028
v 0.0125 0.0074 -0.0028
v 0.0475 0.0067 -0.0034
v 0.0125 0.0067 -0.0034
v 0.0475 0.006 -0.0039
v 0.0125 0.006 -0.0039
v 0.0475 0.0051 -0.0042
v 0.0125 0.0051 -0.0042
v 0.0475 0.0042 -0.0043
v 0.0125 0.0042 -0.0043
v 0.0475 0.0033 -0.0042
v 0.0125 0.0033 -0.0042
v 0.0475 0.0025 -0.0039
v 0.0125 0.0025 -0.0039
v 0.0475 0.0017 -0.0034
v 0.0125 0.0017 -0.0034
v 0.0475 0.0011 -0.0028
v 0.0125 0.0011 -0.0028
v 0.0475 0.0005 -0.0021
v 0.0125 0.0005 -0.0021
v 0.0475 0.0002 -0.0013
v 0.0125 0.0002 -0.0013
v 0.0475 0 -0.0004
v 0.0125 0 -0.0004
v 0.0475 0 0.0004
v 0.0125 0 0.0004
v 0.0475 0.0002 0.0013
v 0.0125 0.0002 0.0013
v 0.0475 0.0005 0.0021
v 0.0125 0.0005 0.0021
v 0.0475 0.0011 0.0028
v 0.0125 0.0011 0.0028
v 0.0475 0.0017 0.0034
v 0.0125 0.0017 0.0034
v 0.0475 0.0025 0.0039
v 0.0125 0.0025 0.0039
v 0.0475 0.0033 0.0042
v 0.0125 0.0033 0.0042
v -0.0475 0.0042 0.0042
v -0.0475 0.0051 0.0042
v -0.0475 0.0033 0.0039
v -0.0453 0.0051 0.0042
v -0.0453 0.0042 0.0042
v -0.0453 0.006 0.0039
v -0.0453 0.0067 0.0034
v -0.0453 0.0074 0.0028
v -0.0453 0.0079 0.0021
v -0.0453 0.0083 0.0013
v -0.0453 0.0084 0.0004
v -0.0453 0.0084 -0.0004
v -0.0453 0.0083 -0.0013
v -0.0453 0.0079 -0.0021
v -0.0453 0.0074 -0.0028
v -0.0453 0.0067 -0.0034
v -0.0453 0.006 -0.0039
v -0.0453 0.0051 -0.0042
v -0.0453 0.0042 -0.0043
v -0.0453 0.0033 -0.0039
v -0.0453 0.0025 -0.0036
v -0.0453 0.0017 -0.0034
v -0.0453 0.0011 -0.0028
v -0.0453 0.0005 -0.0021
v -0.0453 0.0004 -0.0013
v -0.0453 0.0002 -0.0004
v -0.0453 0.0002 0.0004
v -0.0453 0.0002 0.0013
v -0.0453 0.0005 0.0021
v -0.0453 0.0011 0.0028
v -0.0453 0.0017 0.0034
v -0.0453 0.0025 0.0039
v -0.0453 0.0033 0.0042
v -0.0468 0.0051 0.0042
v -0.0468 0.0042 0.0042
v -0.0468 0.006 0.0039
v -0.0468 0.0067 0.0034
v -0.0468 0.0074 0.0028
v -0.0468 0.0079 0.0021
v -0.0468 0.0082 0.0013
v -0.0468 0.0083 0.0004
v -0.0468 0.0084 -0.0004
v -0.0468 0.0083 -0.0013
v -0.0468 0.0079 -0.0021
v -0.0468 0.0074 -0.0028
v -0.0468 0.0067 -0.0034
v -0.0468 0.006 -0.0039
v -0.0468 0.0051 -0.0042
v -0.0468 0.0042 -0.0043
v -0.0468 0.0033 -0.0039
v -0.0468 0.0025 -0.0036
v -0.0468 0.0017 -0.0031
v -0.0468 0.0011 -0.0028
v -0.0468 0.0005 -0.0021
v -0.0468 0.0004 -0.0013
v -0.0468 0.0002 -0.0004
v -0.0468 0.0002 0.0004
v -0.0468 0.0002 0.0013
v -0.0468 0.0005 0.0021
v -0.0468 0.0011 0.0028
v -0.0468 0.0017 0.0034
v -0.0468 0.0025 0.0039
v -0.0468 0.0033 0.0042
v -0.0475 0.006 0.0039
v -0.0475 0.0067 0.0034
v -0.0475 0.0074 0.0028
v -0.0475 0.0079 0.0021
v -0.0475 0.008 0.0013
v -0.0475 0.008 0.0005
v -0.0475 0.0082 -0.0004
v -0.0475 0.0083 -0.0013
v -0.0475 0.0079 -0.0021
v -0.0475 0.0072 -0.0028
v -0.0475 0.0067 -0.0033
v -0.0475 0.006 -0.0037
v -0.0475 0.0051 -0.0042
v -0.0475 0.0042 -0.0043
v -0.0475 0.0033 -0.0039
v -0.0475 0.0025 -0.0038
v -0.0475 0.0017 -0.0031
v -0.0475 0.0011 -0.0028
v -0.0475 0.0005 -0.0021
v -0.0475 0.0004 -0.0013
v -0.0475 0.0002 -0.0004
v -0.0475 0 0.0004
v -0.0475 0.0004 0.0013
v -0.0475 0.0005 0.0021
v -0.0475 0.0011 0.0028
v -0.0475 0.0017 0.0034
v -0.0475 0.0025 0.0036
vn -0 -0 1
vn -0 0.2079 0.9781
vn -0 0.4067 0.9135
vn -0 0.5878 0.809
vn -0 0.7431 0.6691
vn -0 0.866 0.5
vn -0 0.9511 0.309
vn -0 0.9945 0.1045
vn -0 0.9945 -0.1045
vn -0 0.9511 -0.309
vn -0 0.866 -0.5
vn -0 0.7431 -0.6691
vn -0 0.5878 -0.809
vn -0 0.4067 -0.9135
vn -0 0.2079 -0.9781
vn 0 -0 -1
vn -0.0013 -0.0008 -1
vn 0 -0.2079 -0.9781
vn -0.0025 -0.2079 -0.9782
vn 0 -0.4067 -0.9135
vn -0.0012 -0.406 -0.9139
vn 0 -0.5878 -0.809
vn 0 -0.7431 -0.6691
vn 0 -0.866 -0.5
vn -0.0008 -0.8663 -0.4995
vn 0 -0.9511 -0.309
vn -0.0017 -0.9511 -0.309
vn 0 -0.9945 -0.1045
vn -0.0018 -0.9945 -0.1045
vn 0 -0.9945 0.1045
vn -0.0009 -0.9946 0.104
vn 0 -0.9511 0.309
vn 0 -0.866 0.5
vn 0 -0.7431 0.6691
vn 0 -0.5878 0.809
vn 0 -0.4067 0.9135
vn 0 -0.2079 0.9781
vn 1 0 0
vn -1 -0 -0
vn -1 -0.0001 0
vn -0.004 0.8677 0.4971
vn -0.019 0.9527 0.3032
vn -0.0271 0.9936 0.1094
vn -0.0104 0.9949 -0.1001
vn 0 -0.1551 -0.9879
vn -0.0012 -0.3564 -0.9343
vn -0.035 -0.2755 -0.9607
vn -0.0652 -0.42 -0.9052
vn 0 -0.9186 -0.3952
vn -0.0009 -0.9806 -0.1962
vn -0.0018 -0.9999 -0.0146
vn -0.0009 -0.981 0.1942
vn 0.0056 0.2021 0.9793
vn 0.0201 0.4123 0.9108
vn -0.0316 0.8905 0.4539
vn -0.1602 0.957 0.2418
vn -0.2116 0.9706 0.1149
vn -0.14 0.9899 -0.0205
vn -0.0051 0.9575 -0.2885
vn -0.0254 0.8516 -0.5236
vn -0.1108 0.7497 -0.6525
vn -0.0798 0.5721 -0.8163
vn -0.1003 0.43 -0.8972
vn 0.028 -0.3294 -0.9438
vn 0.0945 -0.4328 -0.8965
vn -0.0611 -0.4321 -0.8998
vn -0.031 -0.6507 -0.7587
vn 0 -0.9807 -0.1956
vn 0.027 -0.9907 -0.1331
vn 0.0665 -0.9966 0.0478
vn -0.1214 -0.98 0.1576
vn -0.0091 -0.7367 0.6762
vn -0.071 -0.5642 0.8226
vn -0.155 -0.3989 0.9038
vn -0.1249 -0.2405 0.9626
vn -0 0.1879 0.9822
vn -0.0692 -0.0523 0.9962
vn 0.039 0.4133 0.9098
vn 0.0098 0.5938 0.8045
vn -0 0.9278 0.3731
vn -0.2213 0.9633 0.1518
vn -0.3607 0.9265 0.1073
vn -0.3185 0.944 0.0858
vn -0.0691 0.9702 -0.2321
vn -0 0.8169 -0.5768
vn -0.198 0.7351 -0.6484
vn -0.1616 0.5686 -0.8066
vn -0.2284 0.4648 -0.8555
vn -0.0552 0.2483 -0.9671
vn 0 -0.2582 -0.9661
vn 0.1792 -0.418 -0.8906
vn 0.044 -0.4848 -0.8735
vn 0 -0.6307 -0.776
vn 0 -0.9179 -0.3969
vn 0 -0.9807 -0.1955
vn 0 -0.9793 -0.2025
vn 0.1927 -0.9706 0.1442
vn -0.1929 -0.9679 0.1612
vn -0.0645 -0.8872 0.4569
vn 0 -0.7201 0.6939
vn -0.0771 -0.5055 0.8594
vn -0.2667 -0.3664 0.8914
vn -0.3136 -0.3129 0.8965
vn -0.9999 -0 -0.0164
vn -0.9999 -0.0036 0.0164
vn -1 -0.0037 0.0045
vn -0.9997 -0.0057 0.0242
vn -1 -0.0055 -0.001
vn -1 -0.0057 0.0012
vn -0.9999 -0.0055 -0.012
vn -0.9997 -0.0043 -0.0224
vn -0.9999 -0.0044 0.0091
vn -0.9999 -0.0016 -0.016
vn -0.9999 -0.0016 0.0152
vn -1 -0.0009 0.0084
vn -1 -0.0008 0.0001
vn -0.9999 -0.0032 0.0148
vn -1 -0.003 -0.0076
vn -0.9993 -0.0014 -0.0372
vn -1 -0 -0.0001
usemtl material_1
f 1//1 2//2 3//2 4//1 
f 2//2 5//3 6//3 3//2 
f 5//3 7//4 8//4 6//3 
f 7//4 9//5 10//5 8//4 
f 9//5 11//6 12//6 10//5 
f 11//6 13//7 14//7 12//6 
f 13//7 15//8 16//8 14//7 
f 15//8 17//9 18//9 16//8 
f 17//9 19//10 20//10 18//9 
f 19//10 21//11 22//11 20//10 
f 21//11 23//12 24//12 22//11 
f 23//12 25//13 26//13 24//12 
f 25//13 27//14 28//14 26//13 
f 27//14 29//15 30//15 28//14 
f 29//15 31//16 32//17 30//15 
f 31//16 33//18 34//19 32//17 
f 33//18 35//20 36//21 34//19 
f 35//20 37//22 38//22 36//21 
f 37//22 39//23 40//23 38//22 
f 39//23 41//24 42//25 40//23 
f 41//24 43//26 44//27 42//25 
f 43//26 45//28 46//29 44//27 
f 45//28 47//30 48//31 46//29 
f 47//30 49//32 50//32 48//31 
f 49//32 51//33 52//33 50//32 
f 51//33 53//34 54//34 52//33 
f 53//34 55//35 56//35 54//34 
f 55//35 57//36 58//36 56//35 
f 57//36 59//37 60//37 58//36 
f 59//37 1//1 4//1 60//37 
f 59//38 2//38 1//38 
f 61//39 62//40 63//40 
f 3//2 64//2 65//1 4//1 
f 66//3 64//2 3//2 6//3 
f 67//4 66//3 6//3 8//4 
f 68//5 67//4 8//4 10//5 
f 69//41 68//5 10//5 12//6 
f 70//42 69//41 12//6 14//7 
f 71//43 70//42 14//7 16//8 
f 72//44 71//43 16//8 18//9 
f 73//10 72//44 18//9 20//10 
f 74//11 73//10 20//10 22//11 
f 75//12 74//11 22//11 24//12 
f 76//13 75//12 24//12 26//13 
f 77//14 76//13 26//13 28//14 
f 78//15 77//14 28//14 30//15 
f 79//45 78//15 30//15 32//17 
f 80//46 79//45 32//17 34//19 
f 81//47 80//46 34//19 36//21 
f 82//48 81//47 36//21 38//22 
f 83//23 82//48 38//22 40//23 
f 84//49 83//23 40//23 42//25 
f 85//50 84//49 42//25 44//27 
f 86//29 85//50 44//27 46//29 
f 87//51 86//29 46//29 48//31 
f 88//52 87//51 48//31 50//32 
f 89//33 88//52 50//32 52//33 
f 90//34 89//33 52//33 54//34 
f 91//35 90//34 54//34 56//35 
f 92//36 91//35 56//35 58//36 
f 93//37 92//36 58//36 60//37 
f 65//1 93//37 60//37 4//1 
f 94//53 95//1 65//1 64//2 
f 96//54 94//53 64//2 66//3 
f 97//4 96//54 66//3 67//4 
f 98//5 97//4 67//4 68//5 
f 99//55 98//5 68//5 69//41 
f 100//56 99//55 69//41 70//42 
f 101//57 100//56 70//42 71//43 
f 102//58 101//57 71//43 72//44 
f 103//59 102//58 72//44 73//10 
f 104//60 103//59 73//10 74//11 
f 105//61 104//60 74//11 75//12 
f 106//62 105//61 75//12 76//13 
f 107//63 106//62 76//13 77//14 
f 108//15 107//63 77//14 78//15 
f 109//45 108//15 78//15 79//45 
f 110//64 109//45 79//45 80//46 
f 111//65 110//64 80//46 81//47 
f 112//66 111//65 81//47 82//48 
f 113//67 112//66 82//48 83//23 
f 114//49 113//67 83//23 84//49 
f 115//68 114//49 84//49 85//50 
f 116//69 115//68 85//50 86//29 
f 117//70 116//69 86//29 87//51 
f 118//71 117//70 87//51 88//52 
f 119//33 118//71 88//52 89//33 
f 120//72 119//33 89//33 90//34 
f 121//73 120//72 90//34 91//35 
f 122//74 121//73 91//35 92//36 
f 123//75 122//74 92//36 93//37 
f 95//1 123//75 93//37 65//1 
f 62//76 61//77 95//1 94//53 
f 124//78 62//76 94//53 96//54 
f 125//79 124//78 96//54 97//4 
f 126//5 125//79 97//4 98//5 
f 127//80 126//5 98//5 99//55 
f 128//81 127//80 99//55 100//56 
f 129//82 128//81 100//56 101//57 
f 130//83 129//82 101//57 102//58 
f 131//84 130//83 102//58 103//59 
f 132//85 131//84 103//59 104//60 
f 133//86 132//85 104//60 105//61 
f 134//87 133//86 105//61 106//62 
f 135//88 134//87 106//62 107//63 
f 136//89 135//88 107//63 108//15 
f 137//45 136//89 108//15 109//45 
f 138//90 137//45 109//45 110//64 
f 139//91 138//90 110//64 111//65 
f 140//92 139//91 111//65 112//66 
f 141//93 140//92 112//66 113//67 
f 142//94 141//93 113//67 114//49 
f 143//95 142//94 114//49 115//68 
f 144//96 143//95 115//68 116//69 
f 145//97 144//96 116//69 117//70 
f 146//98 145//97 117//70 118//71 
f 147//99 146//98 118//71 119//33 
f 148//100 147//99 119//33 120//72 
f 149//101 148//100 120//72 121//73 
f 150//102 149//101 121//73 122//74 
f 63//103 150//102 122//74 123//75 
f 61//77 63//103 123//75 95//1 
f 33//38 31//38 29//38 
f 29//38 27//38 35//38 33//38 
f 27//38 25//38 37//38 35//38 
f 25//38 23//38 39//38 37//38 
f 23//38 21//38 41//38 39//38 
f 21//38 19//38 43//38 41//38 
f 19//38 17//38 45//38 43//38 
f 17//38 15//38 47//38 45//38 
f 15//38 13//38 49//38 47//38 
f 13//38 11//38 51//38 49//38 
f 11//38 9//38 53//38 51//38 
f 9//38 7//38 55//38 53//38 
f 7//38 5//38 57//38 55//38 
f 59//38 57//38 5//38 2//38 
f 150//39 63//40 62//40 124//39 
f 149//39 150//39 124//39 125//39 
f 148//39 149//39 125//39 126//39 
f 147//104 148//39 126//39 127//105 
f 146//106 147//104 127//105 128//107 
f 145//108 146//106 128//107 129//109 
f 144//110 145//108 129//109 130//111 
f 143//112 144//110 130//111 131//113 
f 142//114 143//112 131//113 132//115 
f 141//116 142//114 132//115 133//117 
f 140//118 141//116 133//117 134//119 
f 139//39 140//118 134//119 135//39 
f 138//120 139//39 135//39 136//39 
f 136//39 137//39 138//120 
s off
